<svg width="100" height="26" viewBox="0 0 100 26" fill="none" xmlns="http://www.w3.org/2000/svg">
    <path d="M14.7973 12.3365C14.8081 11.5018 15.0298 10.6834 15.4418 9.95747C15.8538 9.23151 16.4428 8.62158 17.1539 8.1844C16.7021 7.53924 16.1062 7.0083 15.4134 6.63375C14.7205 6.2592 13.9499 6.05135 13.1627 6.02672C11.4835 5.85046 9.85552 7.03155 8.99981 7.03155C8.12754 7.03155 6.81004 6.04422 5.39131 6.07341C4.47364 6.10306 3.57929 6.36991 2.79541 6.84797C2.01154 7.32603 1.36486 7.99899 0.918393 8.80128C-1.01561 12.1497 0.426982 17.0708 2.27959 19.7774C3.20649 21.1027 4.28977 22.5832 5.70722 22.5307C7.09428 22.4731 7.61232 21.6462 9.28662 21.6462C10.9454 21.6462 11.4314 22.5307 12.8776 22.4973C14.366 22.4731 15.3038 21.166 16.1981 19.8281C16.8641 18.8838 17.3766 17.8401 17.7166 16.7356C16.8518 16.3699 16.1139 15.7577 15.5948 14.9754C15.0757 14.1931 14.7983 13.2753 14.7973 12.3365Z" fill="#162732"/>
    <path d="M12.0659 4.24672C12.8774 3.27252 13.2772 2.02034 13.1804 0.756104C11.9406 0.886324 10.7953 1.47888 9.97283 2.41571C9.57069 2.87338 9.26269 3.40582 9.06645 3.98258C8.8702 4.55935 8.78956 5.16915 8.82912 5.7771C9.44926 5.78349 10.0628 5.64908 10.6234 5.38399C11.1841 5.1189 11.6773 4.73005 12.0659 4.24672Z" fill="#162732"/>
    <path d="M32.3306 19.1754H27.5972L26.4604 22.5319H24.4556L28.939 10.1139H31.022L35.5054 22.5319H33.4663L32.3306 19.1754ZM28.0874 17.6266H31.8394L29.9898 12.1793H29.938L28.0874 17.6266Z" fill="#162732"/>
    <path d="M45.188 18.0056C45.188 20.8191 43.6822 22.6267 41.4097 22.6267C40.834 22.6568 40.2615 22.5242 39.7578 22.244C39.254 21.9639 38.8392 21.5476 38.5611 21.0427H38.5181V25.5271H36.6597V13.4782H38.4585V14.9841H38.4927C38.7837 14.4816 39.2054 14.0674 39.713 13.7856C40.2207 13.5037 40.7952 13.3648 41.3755 13.3835C43.6733 13.3835 45.188 15.1999 45.188 18.0056ZM43.2779 18.0056C43.2779 16.1726 42.3306 14.9675 40.8853 14.9675C39.4654 14.9675 38.5103 16.198 38.5103 18.0056C38.5103 19.8298 39.4654 21.0515 40.8853 21.0515C42.3306 21.0515 43.2779 19.8552 43.2779 18.0056Z" fill="#162732"/>
    <path d="M55.1529 18.0056C55.1529 20.8191 53.647 22.6267 51.3745 22.6267C50.7989 22.6568 50.2264 22.5242 49.7226 22.244C49.2188 21.9639 48.8041 21.5476 48.5259 21.0427H48.4829V25.527H46.6245V13.4782H48.4233V14.9841H48.4575C48.7485 14.4816 49.1702 14.0674 49.6778 13.7856C50.1855 13.5037 50.76 13.3648 51.3403 13.3835C53.6382 13.3835 55.1529 15.1999 55.1529 18.0056ZM53.2427 18.0056C53.2427 16.1726 52.2954 14.9675 50.8501 14.9675C49.4302 14.9675 48.4751 16.198 48.4751 18.0056C48.4751 19.8298 49.4302 21.0515 50.8501 21.0515C52.2954 21.0515 53.2427 19.8552 53.2427 18.0056H53.2427Z" fill="#162732"/>
    <path d="M61.7388 19.072C61.8765 20.3034 63.0728 21.1119 64.7076 21.1119C66.274 21.1119 67.4009 20.3034 67.4009 19.193C67.4009 18.2291 66.7212 17.652 65.1118 17.2565L63.5025 16.8688C61.2222 16.318 60.1636 15.2516 60.1636 13.5211C60.1636 11.3785 62.0308 9.90686 64.6822 9.90686C67.3062 9.90686 69.105 11.3785 69.1656 13.5211H67.2896C67.1773 12.2819 66.1528 11.5338 64.6558 11.5338C63.1587 11.5338 62.1343 12.2907 62.1343 13.3922C62.1343 14.2701 62.7886 14.7868 64.3892 15.1822L65.7573 15.5182C68.3052 16.1207 69.3638 17.1442 69.3638 18.9605C69.3638 21.2838 67.5132 22.7389 64.5698 22.7389C61.8159 22.7389 59.9565 21.318 59.8364 19.0719L61.7388 19.072Z" fill="#162732"/>
    <path d="M73.3745 11.3356V13.4782H75.0962V14.9498H73.3745V19.941C73.3745 20.7164 73.7192 21.0778 74.4761 21.0778C74.6805 21.0742 74.8845 21.0598 75.0874 21.0348V22.4977C74.7471 22.5612 74.4013 22.59 74.0552 22.5836C72.2222 22.5836 71.5073 21.8951 71.5073 20.1392V14.9498H70.1909V13.4782H71.5073V11.3356H73.3745Z" fill="#162732"/>
    <path d="M76.0933 18.0055C76.0933 15.1569 77.771 13.3668 80.3872 13.3668C83.0122 13.3668 84.6821 15.1568 84.6821 18.0055C84.6821 20.8619 83.021 22.6442 80.3872 22.6442C77.7543 22.6442 76.0933 20.8619 76.0933 18.0055ZM82.7886 18.0055C82.7886 16.0514 81.8931 14.8981 80.3872 14.8981C78.8813 14.8981 77.9868 16.0602 77.9868 18.0055C77.9868 19.9674 78.8813 21.1119 80.3872 21.1119C81.8931 21.1119 82.7885 19.9674 82.7885 18.0055H82.7886Z" fill="#162732"/>
    <path d="M86.2144 13.4782H87.9868V15.0191H88.0298C88.1497 14.5379 88.4317 14.1125 88.8283 13.8146C89.2249 13.5168 89.7119 13.3645 90.2076 13.3834C90.4217 13.3827 90.6353 13.4059 90.8443 13.4528V15.191C90.5739 15.1084 90.2919 15.0705 90.0093 15.0787C89.7393 15.0678 89.4701 15.1154 89.2203 15.2183C88.9705 15.3212 88.7458 15.4769 88.5619 15.6748C88.3779 15.8727 88.2389 16.108 88.1545 16.3647C88.0701 16.6214 88.0422 16.8933 88.0728 17.1617V22.5319H86.2144L86.2144 13.4782Z" fill="#162732"/>
    <path d="M99.4126 19.8727C99.1626 21.5162 97.562 22.6442 95.5142 22.6442C92.8804 22.6442 91.2456 20.8795 91.2456 18.0485C91.2456 15.2086 92.8892 13.3668 95.436 13.3668C97.9409 13.3668 99.5161 15.0875 99.5161 17.8326V18.4694H93.1216V18.5817C93.0921 18.9149 93.1338 19.2505 93.244 19.5664C93.3541 19.8822 93.5303 20.171 93.7606 20.4135C93.991 20.6561 94.2703 20.8468 94.58 20.9732C94.8898 21.0995 95.2229 21.1584 95.5571 21.1461C95.9963 21.1873 96.437 21.0855 96.8137 20.8561C97.1904 20.6267 97.483 20.2818 97.648 19.8727L99.4126 19.8727ZM93.1304 17.1705H97.6567C97.6734 16.8709 97.628 16.5711 97.5233 16.2899C97.4186 16.0087 97.257 15.7522 97.0484 15.5364C96.8399 15.3206 96.5891 15.1503 96.3116 15.0361C96.0341 14.9219 95.736 14.8662 95.436 14.8727C95.1334 14.8709 94.8334 14.929 94.5534 15.0438C94.2733 15.1585 94.0188 15.3276 93.8044 15.5412C93.5901 15.7548 93.4201 16.0088 93.3044 16.2885C93.1888 16.5681 93.1296 16.8679 93.1304 17.1705V17.1705Z" fill="#162732"/>
    <path d="M27.8545 0.766903C28.2441 0.738943 28.6351 0.797803 28.9992 0.939236C29.3633 1.08067 29.6915 1.30115 29.9601 1.58477C30.2286 1.8684 30.4309 2.2081 30.5523 2.57937C30.6737 2.95064 30.7112 3.34423 30.6621 3.73174C30.6621 5.63799 29.6318 6.73374 27.8545 6.73374H25.6992V0.766903H27.8545ZM26.626 5.8899H27.751C28.0294 5.90654 28.308 5.8609 28.5665 5.75628C28.8251 5.65167 29.057 5.49072 29.2455 5.28515C29.434 5.07959 29.5743 4.83458 29.6562 4.56796C29.738 4.30134 29.7594 4.01983 29.7187 3.7439C29.7564 3.46907 29.7329 3.1893 29.6498 2.92463C29.5667 2.65997 29.426 2.41697 29.238 2.21304C29.0499 2.00911 28.8191 1.8493 28.562 1.74506C28.3049 1.64083 28.028 1.59474 27.751 1.61011H26.626V5.8899Z" fill="#162732"/>
    <path d="M31.7088 4.4803C31.6805 4.18438 31.7143 3.88581 31.8082 3.60374C31.902 3.32167 32.0538 3.06233 32.2537 2.84235C32.4536 2.62237 32.6974 2.4466 32.9692 2.32633C33.2411 2.20605 33.535 2.14392 33.8323 2.14392C34.1296 2.14392 34.4236 2.20605 34.6954 2.32633C34.9673 2.4466 35.211 2.62237 35.4109 2.84235C35.6109 3.06233 35.7626 3.32167 35.8565 3.60374C35.9503 3.88581 35.9842 4.18438 35.9558 4.4803C35.9847 4.77652 35.9512 5.0755 35.8577 5.35803C35.7641 5.64055 35.6124 5.90037 35.4124 6.12078C35.2124 6.3412 34.9685 6.51733 34.6964 6.63787C34.4243 6.7584 34.1299 6.82067 33.8323 6.82067C33.5347 6.82067 33.2404 6.7584 32.9682 6.63787C32.6961 6.51733 32.4522 6.3412 32.2522 6.12078C32.0522 5.90037 31.9006 5.64055 31.807 5.35803C31.7134 5.0755 31.6799 4.77652 31.7088 4.4803ZM35.0418 4.4803C35.0418 3.50423 34.6033 2.93343 33.8338 2.93343C33.0613 2.93343 32.6268 3.50423 32.6268 4.48031C32.6268 5.4642 33.0613 6.0306 33.8338 6.0306C34.6033 6.03059 35.0418 5.46028 35.0418 4.4803H35.0418Z" fill="#162732"/>
    <path d="M41.6016 6.73364H40.6797L39.749 3.41723H39.6787L38.752 6.73364H37.8389L36.5977 2.23071H37.499L38.3057 5.66671H38.3721L39.2979 2.23071H40.1504L41.0762 5.66671H41.1465L41.9492 2.23071H42.8379L41.6016 6.73364Z" fill="#162732"/>
    <path d="M43.8818 2.23076H44.7373V2.94609H44.8037C44.9164 2.68917 45.1064 2.47379 45.3472 2.32999C45.5881 2.18618 45.8679 2.12111 46.1475 2.14384C46.3666 2.12736 46.5866 2.1604 46.7912 2.2405C46.9958 2.32059 47.1797 2.4457 47.3294 2.60654C47.4791 2.76738 47.5907 2.95984 47.6559 3.16966C47.7211 3.37948 47.7382 3.60129 47.7061 3.81864V6.73364H46.8174V4.0418C46.8174 3.31817 46.5029 2.9583 45.8457 2.9583C45.6969 2.95137 45.5484 2.97669 45.4104 3.03252C45.2723 3.08835 45.148 3.17337 45.0459 3.28175C44.9437 3.39014 44.8663 3.51932 44.8187 3.66045C44.7712 3.80159 44.7547 3.95132 44.7705 4.09941V6.73369H43.8818L43.8818 2.23076Z" fill="#162732"/>
    <path d="M49.1221 0.4729H50.0107V6.73364H49.1221V0.4729Z" fill="#162732"/>
    <path d="M51.2459 4.48026C51.2176 4.18432 51.2514 3.88574 51.3453 3.60366C51.4392 3.32158 51.591 3.06223 51.7909 2.84224C51.9909 2.62225 52.2346 2.44648 52.5065 2.32621C52.7783 2.20593 53.0724 2.1438 53.3696 2.1438C53.6669 2.1438 53.9609 2.20593 54.2328 2.32621C54.5047 2.44648 54.7484 2.62225 54.9484 2.84224C55.1483 3.06223 55.3001 3.32158 55.394 3.60366C55.4878 3.88574 55.5217 4.18432 55.4934 4.48026C55.5222 4.77649 55.4888 5.07548 55.3951 5.358C55.3015 5.64053 55.1498 5.90034 54.9498 6.12075C54.7498 6.34116 54.5059 6.51728 54.2337 6.63781C53.9616 6.75834 53.6673 6.82061 53.3696 6.82061C53.072 6.82061 52.7777 6.75834 52.5055 6.63781C52.2334 6.51728 51.9895 6.34116 51.7895 6.12075C51.5895 5.90034 51.4378 5.64053 51.3442 5.358C51.2505 5.07548 51.2171 4.77649 51.2459 4.48026ZM54.5789 4.48026C54.5789 3.50419 54.1404 2.93339 53.3709 2.93339C52.5984 2.93339 52.1639 3.50419 52.1639 4.48027C52.1639 5.46416 52.5984 6.03056 53.3709 6.03056C54.1404 6.03055 54.5789 5.46024 54.5789 4.48026H54.5789Z" fill="#162732"/>
    <path d="M56.4292 5.4602C56.4292 4.64965 57.0327 4.18237 58.104 4.11596L59.3237 4.04565V3.65698C59.3237 3.18139 59.0093 2.91284 58.4019 2.91284C57.9058 2.91284 57.562 3.09497 57.4634 3.41333H56.603C56.6938 2.63989 57.4214 2.1438 58.4429 2.1438C59.5718 2.1438 60.2085 2.7058 60.2085 3.65698V6.73364H59.353V6.10083H59.2827C59.14 6.32782 58.9396 6.51287 58.702 6.63708C58.4643 6.76129 58.198 6.82021 57.9302 6.80783C57.7411 6.82749 57.5501 6.80732 57.3693 6.74863C57.1886 6.68993 57.0221 6.594 56.8807 6.46703C56.7393 6.34006 56.626 6.18487 56.5483 6.01145C56.4705 5.83804 56.4299 5.65025 56.4292 5.4602ZM59.3237 5.07543V4.69897L58.2241 4.76928C57.604 4.81078 57.3227 5.02172 57.3227 5.41869C57.3227 5.82396 57.6743 6.0598 58.1577 6.0598C58.2994 6.07414 58.4425 6.05984 58.5785 6.01775C58.7145 5.97565 58.8406 5.90664 58.9494 5.81479C59.0582 5.72295 59.1474 5.61017 59.2117 5.48315C59.276 5.35613 59.3141 5.21747 59.3237 5.07543Z" fill="#162732"/>
    <path d="M61.3765 4.48024C61.3765 3.05739 62.1079 2.15602 63.2456 2.15602C63.527 2.14305 63.8063 2.21046 64.0508 2.35035C64.2954 2.49025 64.495 2.69685 64.6265 2.94602H64.6929V0.4729H65.5815V6.73364H64.73V6.02221H64.6597C64.5181 6.2697 64.3115 6.47374 64.0622 6.61222C63.813 6.7507 63.5306 6.81835 63.2456 6.80785C62.1001 6.8079 61.3765 5.90651 61.3765 4.48024ZM62.2945 4.48024C62.2945 5.43532 62.7447 6.01003 63.4976 6.01003C64.2466 6.01003 64.7095 5.42703 64.7095 4.48415C64.7095 3.54567 64.2417 2.95436 63.4976 2.95436C62.7495 2.95436 62.2944 3.53297 62.2944 4.48024H62.2945Z" fill="#162732"/>
    <path d="M69.2581 4.4803C69.2298 4.18438 69.2636 3.88581 69.3575 3.60374C69.4513 3.32167 69.6031 3.06233 69.803 2.84235C70.003 2.62237 70.2467 2.4466 70.5185 2.32633C70.7904 2.20605 71.0844 2.14392 71.3816 2.14392C71.6789 2.14392 71.9729 2.20605 72.2447 2.32633C72.5166 2.4466 72.7603 2.62237 72.9602 2.84235C73.1602 3.06233 73.3119 3.32167 73.4058 3.60374C73.4996 3.88581 73.5335 4.18438 73.5052 4.4803C73.534 4.77652 73.5006 5.0755 73.407 5.35803C73.3134 5.64055 73.1617 5.90037 72.9617 6.12078C72.7617 6.3412 72.5178 6.51733 72.2457 6.63787C71.9736 6.7584 71.6793 6.82067 71.3816 6.82067C71.084 6.82067 70.7897 6.7584 70.5175 6.63787C70.2454 6.51733 70.0015 6.3412 69.8015 6.12078C69.6015 5.90037 69.4499 5.64055 69.3563 5.35803C69.2627 5.0755 69.2292 4.77652 69.2581 4.4803ZM72.5911 4.4803C72.5911 3.50423 72.1526 2.93343 71.3831 2.93343C70.6106 2.93343 70.1761 3.50423 70.1761 4.48031C70.1761 5.4642 70.6107 6.0306 71.3831 6.0306C72.1526 6.03059 72.5911 5.46028 72.5911 4.4803Z" fill="#162732"/>
    <path d="M74.6978 2.23076H75.5532V2.94609H75.6196C75.7323 2.68917 75.9223 2.47379 76.1632 2.32999C76.404 2.18618 76.6838 2.12111 76.9634 2.14384C77.1825 2.12736 77.4025 2.1604 77.6071 2.2405C77.8117 2.32059 77.9956 2.4457 78.1453 2.60654C78.295 2.76738 78.4066 2.95984 78.4718 3.16966C78.537 3.37948 78.5541 3.60129 78.522 3.81864V6.73364H77.6333V4.0418C77.6333 3.31817 77.3189 2.9583 76.6616 2.9583C76.5129 2.95137 76.3644 2.97669 76.2263 3.03252C76.0883 3.08835 75.9639 3.17337 75.8618 3.28175C75.7597 3.39014 75.6822 3.51932 75.6346 3.66045C75.5871 3.80159 75.5707 3.95132 75.5864 4.09941V6.73369H74.6978V2.23076Z" fill="#162732"/>
    <path d="M83.5435 1.10962V2.25122H84.5191V2.99976H83.5435V5.31519C83.5435 5.78687 83.7378 5.99341 84.1802 5.99341C84.2934 5.99305 84.4066 5.9862 84.5191 5.9729V6.71313C84.3595 6.74168 84.1978 6.75687 84.0356 6.75854C83.0474 6.75854 82.6538 6.41088 82.6538 5.54272V2.99972H81.939V2.25118H82.6538V1.10962H83.5435Z" fill="#162732"/>
    <path d="M85.7329 0.4729H86.6138V2.95435H86.6841C86.8022 2.69503 86.9974 2.47844 87.2431 2.33409C87.4888 2.18974 87.773 2.12466 88.0571 2.14771C88.275 2.13585 88.4929 2.17224 88.6952 2.25428C88.8975 2.33632 89.0792 2.462 89.2273 2.62233C89.3754 2.78267 89.4863 2.97372 89.5521 3.18186C89.6179 3.38999 89.6369 3.61008 89.6079 3.82642V6.73365H88.7183V4.04565C88.7183 3.32641 88.3833 2.96215 87.7554 2.96215C87.6027 2.94962 87.449 2.97062 87.3053 3.02367C87.1615 3.07673 87.031 3.16056 86.923 3.26929C86.815 3.37803 86.7321 3.50905 86.6801 3.65319C86.628 3.79733 86.608 3.9511 86.6216 4.10375V6.73363H85.7329L85.7329 0.4729Z" fill="#162732"/>
    <path d="M94.7897 5.51777C94.669 5.92931 94.4074 6.2853 94.0507 6.52345C93.694 6.76159 93.2649 6.86675 92.8385 6.8205C92.5419 6.82833 92.2471 6.77151 91.9746 6.65398C91.7021 6.53646 91.4584 6.36104 91.2605 6.1399C91.0626 5.91876 90.9152 5.6572 90.8285 5.37338C90.7418 5.08956 90.7179 4.79027 90.7585 4.49629C90.719 4.20141 90.7433 3.90147 90.8298 3.6168C90.9162 3.33213 91.0629 3.06936 91.2598 2.84629C91.4566 2.62322 91.6991 2.44504 91.9708 2.32384C92.2425 2.20263 92.5371 2.14122 92.8346 2.14375C94.0876 2.14375 94.8434 2.99975 94.8434 4.41375V4.72384H91.6637V4.77364C91.6498 4.93889 91.6706 5.10522 91.7247 5.26197C91.7788 5.41872 91.8651 5.56243 91.978 5.68388C92.0909 5.80534 92.228 5.90186 92.3804 5.96726C92.5328 6.03265 92.6971 6.06548 92.8629 6.06364C93.0755 6.08916 93.2909 6.05088 93.4816 5.95368C93.6724 5.85647 93.8299 5.70473 93.9342 5.51774L94.7897 5.51777ZM91.6637 4.0666H93.9381C93.9493 3.91547 93.9288 3.76367 93.8778 3.62096C93.8269 3.47824 93.7466 3.34776 93.6422 3.2379C93.5378 3.12804 93.4116 3.04124 93.2717 2.98306C93.1318 2.92489 92.9812 2.89663 92.8297 2.9001C92.676 2.89817 92.5235 2.92703 92.3811 2.98497C92.2387 3.04292 92.1094 3.12878 92.0008 3.23749C91.8921 3.3462 91.8063 3.47557 91.7484 3.61797C91.6905 3.76036 91.6617 3.9129 91.6637 4.0666H91.6637Z" fill="#162732"/>
</svg>
